<?xml version="1.0" encoding="UTF-8"?>
<svg viewBox="0 0 129.68306 144.96902" xmlns="http://www.w3.org/2000/svg" xmlns:xlink="http://www.w3.org/1999/xlink">
 <defs>
  <linearGradient id="b">
   <stop offset="0"/>
   <stop stop-color="#928f90" offset=".61905"/>
   <stop stop-color="#34342e" offset="1"/>
  </linearGradient>
  <linearGradient id="h" x1="323.02" x2="331.61" gradientUnits="userSpaceOnUse" xlink:href="#b"/>
  <linearGradient id="g" x1="431.29" x2="439.88" gradientUnits="userSpaceOnUse" xlink:href="#b"/>
  <linearGradient id="f" x1="306.69" x2="317.93" gradientTransform="matrix(-.38235 -.66225 .64372 -.37165 266.47 603.85)" gradientUnits="userSpaceOnUse" xlink:href="#b"/>
  <linearGradient id="e" x1="306.69" x2="317.93" gradientTransform="matrix(-.38235 -.66225 .64372 -.37165 320.92 696.56)" gradientUnits="userSpaceOnUse" xlink:href="#b"/>
  <linearGradient id="d" x1="306.69" x2="317.93" gradientTransform="matrix(.38235 -.66225 .64372 .37165 27.829 457.58)" gradientUnits="userSpaceOnUse" xlink:href="#b"/>
  <linearGradient id="c" x1="306.69" x2="317.93" gradientTransform="matrix(.38235 -.66225 .64372 .37165 81.696 364.21)" gradientUnits="userSpaceOnUse" xlink:href="#b"/>
  <radialGradient id="a" cx="211.08" cy="248.98" r="10.858" gradientUnits="userSpaceOnUse">
   <stop stop-color="#8b8bad" offset="0"/>
   <stop stop-color="#3e3d52" offset="1"/>
  </radialGradient>
 </defs>
 <g transform="translate(-316.6 -251.25)">
  <path transform="translate(173.14 9.9215)" d="m218.99 252.04c0 5.9138-4.7941 10.708-10.708 10.708s-10.708-4.7941-10.708-10.708 4.7941-10.708 10.708-10.708 10.708 4.7941 10.708 10.708z" fill="url(#a)"/>
  <path transform="translate(227.23 40.628)" d="m218.99 252.04c0 5.9138-4.7941 10.708-10.708 10.708s-10.708-4.7941-10.708-10.708 4.7941-10.708 10.708-10.708 10.708 4.7941 10.708 10.708z" fill="url(#a)"/>
  <path transform="translate(227.29 102.65)" d="m218.99 252.04c0 5.9138-4.7941 10.708-10.708 10.708s-10.708-4.7941-10.708-10.708 4.7941-10.708 10.708-10.708 10.708 4.7941 10.708 10.708z" fill="url(#a)"/>
  <path transform="translate(173.1 133.47)" d="m218.99 252.04c0 5.9138-4.7941 10.708-10.708 10.708s-10.708-4.7941-10.708-10.708 4.7941-10.708 10.708-10.708 10.708 4.7941 10.708 10.708z" fill="url(#a)"/>
  <path transform="translate(119.1 102.58)" d="m218.99 252.04c0 5.9138-4.7941 10.708-10.708 10.708s-10.708-4.7941-10.708-10.708 4.7941-10.708 10.708-10.708 10.708 4.7941 10.708 10.708z" fill="url(#a)"/>
  <path transform="translate(119.03 40.628)" d="m218.99 252.04c0 5.9138-4.7941 10.708-10.708 10.708s-10.708-4.7941-10.708-10.708 4.7941-10.708 10.708-10.708 10.708 4.7941 10.708 10.708z" fill="url(#a)"/>
  <path d="m323.13 302.5s1.744-0.69051 4.1812-0.69051 4.1812 0.69051 4.1812 0.69051v43.192s-1.802 0.55768-4.1812 0.55768-4.1812-0.55768-4.1812-0.55768v-43.192z" fill="url(#h)"/>
  <path d="m431.4 301.86s1.744-0.69051 4.1812-0.69051 4.1812 0.69051 4.1812 0.69051v43.192s-1.802 0.55768-4.1812 0.55768-4.1812-0.55768-4.1812-0.55768v-43.192z" fill="url(#g)"/>
  <path d="m337.54 291.88s-1.47-1.1651-2.6886-3.2758-1.4926-3.9663-1.4926-3.9663l37.406-21.596s1.384 1.2817 2.5736 3.3422 1.6077 3.8999 1.6077 3.8999l-37.406 21.596z" fill="url(#f)"/>
  <path d="m391.99 384.59s-1.47-1.1651-2.6886-3.2758-1.4926-3.9663-1.4926-3.9663l37.406-21.596s1.384 1.2817 2.5736 3.3422 1.6077 3.8999 1.6077 3.8999l-37.406 21.596z" fill="url(#e)"/>
  <path d="m333.54 363.14s0.27399-1.8556 1.4926-3.9663 2.6886-3.2758 2.6886-3.2758l37.406 21.596s-0.41802 1.8394-1.6077 3.8999-2.5736 3.3422-2.5736 3.3422l-37.406-21.596z" fill="url(#d)"/>
  <path d="m387.41 269.77s0.27398-1.8556 1.4926-3.9663 2.6886-3.2758 2.6886-3.2758l37.406 21.596s-0.41802 1.8394-1.6077 3.8999-2.5736 3.3422-2.5736 3.3422l-37.406-21.596z" fill="url(#c)"/>
 </g>
</svg>
