<?xml version="1.0" encoding="UTF-8" standalone="no"?>
<svg
   xmlns:dc="http://purl.org/dc/elements/1.1/"
   xmlns:cc="http://creativecommons.org/ns#"
   xmlns:rdf="http://www.w3.org/1999/02/22-rdf-syntax-ns#"
   xmlns:svg="http://www.w3.org/2000/svg"
   xmlns="http://www.w3.org/2000/svg"
   xmlns:xlink="http://www.w3.org/1999/xlink"
   xmlns:sodipodi="http://sodipodi.sourceforge.net/DTD/sodipodi-0.dtd"
   xmlns:inkscape="http://www.inkscape.org/namespaces/inkscape"
   viewBox="0 0 20 19.999999"
   version="1.1"
   id="svg48"
   sodipodi:docname="benzene-147550.svg"
   width="20"
   height="20"
   inkscape:version="0.92.2 (5c3e80d, 2017-08-06)">
  <metadata
     id="metadata52">
    <rdf:RDF>
      <cc:Work
         rdf:about="">
        <dc:format>image/svg+xml</dc:format>
        <dc:type
           rdf:resource="http://purl.org/dc/dcmitype/StillImage" />
        <dc:title />
        <cc:license
           rdf:resource="https://pixabay.com/service/terms/#license" />
      </cc:Work>
    </rdf:RDF>
  </metadata>
  <sodipodi:namedview
     pagecolor="#ffffff"
     bordercolor="#666666"
     borderopacity="1"
     objecttolerance="10"
     gridtolerance="10"
     guidetolerance="10"
     inkscape:pageopacity="0"
     inkscape:pageshadow="2"
     inkscape:window-width="1920"
     inkscape:window-height="1145"
     id="namedview50"
     showgrid="false"
     inkscape:zoom="16.918022"
     inkscape:cx="-15.690473"
     inkscape:cy="11.276074"
     inkscape:window-x="0"
     inkscape:window-y="0"
     inkscape:window-maximized="1"
     inkscape:current-layer="g46" />
  <defs
     id="defs20">
    <linearGradient
       id="b">
      <stop
         offset="0"
         id="stop2" />
      <stop
         stop-color="#928f90"
         offset=".61905"
         id="stop4" />
      <stop
         stop-color="#34342e"
         offset="1"
         id="stop6" />
    </linearGradient>
    <linearGradient
       id="h"
       x1="323.01999"
       x2="331.60999"
       gradientUnits="userSpaceOnUse"
       xlink:href="#b" />
    <linearGradient
       id="g"
       x1="431.29001"
       x2="439.88"
       gradientUnits="userSpaceOnUse"
       xlink:href="#b" />
    <linearGradient
       id="f"
       x1="306.69"
       x2="317.92999"
       gradientTransform="matrix(-0.38235,-0.66225,0.64372,-0.37165,266.47,603.85)"
       gradientUnits="userSpaceOnUse"
       xlink:href="#b" />
    <linearGradient
       id="e"
       x1="306.69"
       x2="317.92999"
       gradientTransform="matrix(-0.38235,-0.66225,0.64372,-0.37165,320.92,696.56)"
       gradientUnits="userSpaceOnUse"
       xlink:href="#b" />
    <linearGradient
       id="d"
       x1="306.69"
       x2="317.92999"
       gradientTransform="matrix(0.38235,-0.66225,0.64372,0.37165,27.829,457.58)"
       gradientUnits="userSpaceOnUse"
       xlink:href="#b" />
    <linearGradient
       id="c"
       x1="306.69"
       x2="317.92999"
       gradientTransform="matrix(0.38235,-0.66225,0.64372,0.37165,81.696,364.21)"
       gradientUnits="userSpaceOnUse"
       xlink:href="#b" />
    <radialGradient
       id="a"
       cx="211.08"
       cy="248.98"
       r="10.858"
       gradientUnits="userSpaceOnUse">
      <stop
         stop-color="#8b8bad"
         offset="0"
         id="stop15" />
      <stop
         stop-color="#3e3d52"
         offset="1"
         id="stop17" />
    </radialGradient>
    <radialGradient
       inkscape:collect="always"
       xlink:href="#a"
       id="radialGradient54"
       gradientUnits="userSpaceOnUse"
       cx="211.08"
       cy="248.98"
       r="10.858" />
    <radialGradient
       inkscape:collect="always"
       xlink:href="#a"
       id="radialGradient56"
       gradientUnits="userSpaceOnUse"
       cx="211.08"
       cy="248.98"
       r="10.858" />
    <radialGradient
       inkscape:collect="always"
       xlink:href="#a"
       id="radialGradient58"
       gradientUnits="userSpaceOnUse"
       cx="211.08"
       cy="248.98"
       r="10.858" />
    <radialGradient
       inkscape:collect="always"
       xlink:href="#a"
       id="radialGradient60"
       gradientUnits="userSpaceOnUse"
       cx="211.08"
       cy="248.98"
       r="10.858" />
    <radialGradient
       inkscape:collect="always"
       xlink:href="#a"
       id="radialGradient62"
       gradientUnits="userSpaceOnUse"
       cx="211.08"
       cy="248.98"
       r="10.858" />
    <radialGradient
       inkscape:collect="always"
       xlink:href="#a"
       id="radialGradient64"
       gradientUnits="userSpaceOnUse"
       cx="211.08"
       cy="248.98"
       r="10.858" />
  </defs>
  <g
     transform="matrix(0.13451569,0,0,0.13451569,-41.292027,-33.528279)"
     id="g46"
     style="display:inline">
    <path
       transform="translate(173.14,9.9215)"
       d="m 218.99,252.04 c 0,5.9138 -4.7941,10.708 -10.708,10.708 -5.9139,0 -10.708,-4.7941 -10.708,-10.708 0,-5.9139 4.7941,-10.708 10.708,-10.708 5.9139,0 10.708,4.7941 10.708,10.708 z"
       id="path22"
       style="fill:url(#radialGradient54)"
       inkscape:connector-curvature="0" />
    <path
       transform="translate(227.23,40.628)"
       d="m 218.99,252.04 c 0,5.9138 -4.7941,10.708 -10.708,10.708 -5.9139,0 -10.708,-4.7941 -10.708,-10.708 0,-5.9139 4.7941,-10.708 10.708,-10.708 5.9139,0 10.708,4.7941 10.708,10.708 z"
       id="path24"
       style="fill:url(#radialGradient56)"
       inkscape:connector-curvature="0" />
    <path
       transform="translate(227.29,102.65)"
       d="m 218.99,252.04 c 0,5.9138 -4.7941,10.708 -10.708,10.708 -5.9139,0 -10.708,-4.7941 -10.708,-10.708 0,-5.9139 4.7941,-10.708 10.708,-10.708 5.9139,0 10.708,4.7941 10.708,10.708 z"
       id="path26"
       style="fill:url(#radialGradient58)"
       inkscape:connector-curvature="0" />
    <path
       transform="translate(173.1,133.47)"
       d="m 218.99,252.04 c 0,5.9138 -4.7941,10.708 -10.708,10.708 -5.9139,0 -10.708,-4.7941 -10.708,-10.708 0,-5.9139 4.7941,-10.708 10.708,-10.708 5.9139,0 10.708,4.7941 10.708,10.708 z"
       id="path28"
       style="fill:url(#radialGradient60)"
       inkscape:connector-curvature="0" />
    <path
       transform="translate(119.1,102.58)"
       d="m 218.99,252.04 c 0,5.9138 -4.7941,10.708 -10.708,10.708 -5.9139,0 -10.708,-4.7941 -10.708,-10.708 0,-5.9139 4.7941,-10.708 10.708,-10.708 5.9139,0 10.708,4.7941 10.708,10.708 z"
       id="path30"
       style="fill:url(#radialGradient62)"
       inkscape:connector-curvature="0" />
    <path
       transform="translate(119.03,40.628)"
       d="m 218.99,252.04 c 0,5.9138 -4.7941,10.708 -10.708,10.708 -5.9139,0 -10.708,-4.7941 -10.708,-10.708 0,-5.9139 4.7941,-10.708 10.708,-10.708 5.9139,0 10.708,4.7941 10.708,10.708 z"
       id="path32"
       style="fill:url(#radialGradient64)"
       inkscape:connector-curvature="0" />
    <path
       d="m 323.13,302.5 c 0,0 1.744,-0.69051 4.1812,-0.69051 2.4372,0 4.1812,0.69051 4.1812,0.69051 v 43.192 c 0,0 -1.802,0.55768 -4.1812,0.55768 -2.3792,0 -4.1812,-0.55768 -4.1812,-0.55768 z"
       id="path34"
       style="fill:url(#h)"
       inkscape:connector-curvature="0" />
    <path
       d="m 431.4,301.86 c 0,0 1.744,-0.69051 4.1812,-0.69051 2.4372,0 4.1812,0.69051 4.1812,0.69051 v 43.192 c 0,0 -1.802,0.55768 -4.1812,0.55768 -2.3792,0 -4.1812,-0.55768 -4.1812,-0.55768 z"
       id="path36"
       style="fill:url(#g)"
       inkscape:connector-curvature="0" />
    <path
       d="m 337.54,291.88 c 0,0 -1.47,-1.1651 -2.6886,-3.2758 -1.2186,-2.1107 -1.4926,-3.9663 -1.4926,-3.9663 l 37.406,-21.596 c 0,0 1.384,1.2817 2.5736,3.3422 1.1896,2.0605 1.6077,3.8999 1.6077,3.8999 l -37.406,21.596 z"
       id="path38"
       style="fill:url(#f)"
       inkscape:connector-curvature="0" />
    <path
       d="m 391.99,384.59 c 0,0 -1.47,-1.1651 -2.6886,-3.2758 -1.2186,-2.1107 -1.4926,-3.9663 -1.4926,-3.9663 l 37.406,-21.596 c 0,0 1.384,1.2817 2.5736,3.3422 1.1896,2.0605 1.6077,3.8999 1.6077,3.8999 l -37.406,21.596 z"
       id="path40"
       style="fill:url(#e)"
       inkscape:connector-curvature="0" />
    <path
       d="m 333.54,363.14 c 0,0 0.27399,-1.8556 1.4926,-3.9663 1.21861,-2.1107 2.6886,-3.2758 2.6886,-3.2758 l 37.406,21.596 c 0,0 -0.41802,1.8394 -1.6077,3.8999 -1.18968,2.0605 -2.5736,3.3422 -2.5736,3.3422 l -37.406,-21.596 z"
       id="path42"
       style="fill:url(#d)"
       inkscape:connector-curvature="0" />
    <path
       d="m 387.41,269.77 c 0,0 0.27398,-1.8556 1.4926,-3.9663 1.21862,-2.1107 2.6886,-3.2758 2.6886,-3.2758 l 37.406,21.596 c 0,0 -0.41802,1.8394 -1.6077,3.8999 -1.18968,2.0605 -2.5736,3.3422 -2.5736,3.3422 l -37.406,-21.596 z"
       id="path44"
       style="display:inline;fill:url(#c)"
       inkscape:connector-curvature="0" />
  </g>
</svg>
